:FULLY-SPECIFIED
:FORCE-ALL-JOINTS-BE-3DOF
:DEGREES
1937
root 5.46414 13.7615 28.1946 -33.9858 74.012 -38.4438
lfemur -62.4006 12.9825 -9.93775
ltibia 67.5056 -0 0
lfoot -5.38349 0.761364 -0.122442
ltoes -32.4782 0 0
rfemur -4.84635 -5.80054 18.9531
rtibia 61.2911 -0 0
rfoot -26.0481 -30.2267 0.0807662
rtoes -27.0791 0 0
lowerback 13.1284 4.17218 4.76528
upperback -0.75796 6.70813 3.73053
thorax -8.10193 3.17767 0.0157236
lowerneck -0.514218 14.7727 6.96022
upperneck 5.12203 20.1197 -7.41564
head 3.39362 10.0141 -2.72944
lclavicle 4.57205e-14 -6.59965e-14 0
lhumerus 65.3765 -27.2823 54.851
lradius 47.599 -0 0
lwrist -0.681218 0 0
lhand -15.0246 35.0582 -0.0438836
lfingers 7.12502 -0 0
lthumb 11.1405 64.731 -0.0441873
rclavicle 4.57205e-14 -6.59965e-14 0
rhumerus -44.1886 25.5396 -78.1151
rradius 94.8507 -0 0
rwrist -39.8449 0 0
rhand -12.4874 -43.1085 0.0432877
rfingers 7.12502 -0 0
rthumb 13.5843 -72.6031 0.0525379
1938
root 5.3246 13.7751 28.2275 -36.6877 75.0083 -41.1973
lfemur -62.5093 12.929 -10.7279
ltibia 67.257 -0 0
lfoot -5.5357 1.08125 -0.131804
ltoes -32.4226 0 0
rfemur -5.25916 -5.80518 19.2874
rtibia 61.3845 -0 0
rfoot -26.2513 -30.3848 0.0869391
rtoes -27.0617 0 0
lowerback 13.1965 4.04759 4.82349
upperback -0.74013 6.5621 3.76169
thorax -8.12346 3.10629 0.0427796
lowerneck -0.549115 14.718 6.92214
upperneck 5.02826 20.0418 -7.46301
head 3.36284 9.97437 -2.74504
lclavicle 4.57205e-14 -6.59965e-14 0
lhumerus 65.8607 -27.8446 53.9241
lradius 49.7113 -0 0
lwrist -0.186246 0 0
lhand -15.1548 35.1923 -0.0472368
lfingers 7.12502 -0 0
lthumb 11.0149 64.8709 -0.0475637
rclavicle 4.57205e-14 -6.59965e-14 0
rhumerus -43.9622 26.1849 -78.106
rradius 95.1377 -0 0
rwrist -40.2506 0 0
rhand -12.2491 -43.0362 0.046596
rfingers 7.12502 -0 0
rthumb 13.8138 -72.5121 0.0565531
1939
root 5.18506 13.7887 28.2605 -39.7675 75.9664 -44.3287
lfemur -62.6171 12.874 -11.5178
ltibia 67.0084 -0 0
lfoot -5.68797 1.40116 -0.140316
ltoes -32.367 0 0
rfemur -5.67199 -5.80743 19.6217
rtibia 61.4779 -0 0
rfoot -26.4546 -30.5429 0.0925512
rtoes -27.0443 0 0
lowerback 13.2645 3.92294 4.88155
upperback -0.722386 6.41606 3.79279
thorax -8.14503 3.03493 0.0698605
lowerneck -0.583966 14.6632 6.88412
upperneck 4.9346 19.9638 -7.51023
head 3.33208 9.93459 -2.7606
lclavicle 4.57205e-14 -6.59965e-14 0
lhumerus 66.3577 -28.3998 52.9871
lradius 51.8235 -0 0
lwrist 0.308727 0 0
lhand -15.285 35.3264 -0.0502852
lfingers 7.12502 -0 0
lthumb 10.8892 65.0109 -0.0506332
rclavicle 4.57205e-14 -6.59965e-14 0
rhumerus -43.7345 26.8301 -78.094
rradius 95.4248 -0 0
rwrist -40.6563 0 0
rhand -12.0108 -42.964 0.0496038
rfingers 7.12502 -0 0
rthumb 14.0432 -72.421 0.0602036
1940
root 5.04551 13.8023 28.2934 -43.288 76.8779 -47.9006
lfemur -62.7242 12.8176 -12.3075
ltibia 66.7598 -0 0
lfoot -5.84028 1.72109 -0.147979
ltoes -32.3114 0 0
rfemur -6.08482 -5.80729 19.956
rtibia 61.5713 -0 0
rfoot -26.6578 -30.701 0.0976024
rtoes -27.027 0 0
lowerback 13.3323 3.79822 4.93945
upperback -0.704726 6.27002 3.82383
thorax -8.16663 2.96357 0.0969667
lowerneck -0.61877 14.6085 6.84613
upperneck 4.84105 19.8857 -7.55728
head 3.30133 9.89481 -2.77615
lclavicle 4.57205e-14 -6.59965e-14 0
lhumerus 66.8676 -28.9477 52.0396
lradius 53.9358 -0 0
lwrist 0.803699 0 0
lhand -15.4152 35.4605 -0.0530289
lfingers 7.12502 -0 0
lthumb 10.7636 65.1508 -0.0533959
rclavicle 4.57205e-14 -6.59965e-14 0
rhumerus -43.5052 27.4753 -78.0791
rradius 95.7119 -0 0
rwrist -41.062 0 0
rhand -11.7725 -42.8917 0.0523109
rfingers 7.12502 -0 0
rthumb 14.2727 -72.3298 0.0634892
1941
root 4.90597 13.8159 28.3264 -47.3173 77.7322 -51.9813
lfemur -62.8304 12.7597 -13.0968
ltibia 66.5112 -0 0
lfoot -5.99262 2.04104 -0.15479
ltoes -32.2558 0 0
rfemur -6.49765 -5.80474 20.2904
rtibia 61.6647 -0 0
rfoot -26.8611 -30.8592 0.102093
rtoes -27.0096 0 0
lowerback 13.4 3.67343 4.99719
upperback -0.687151 6.12396 3.85483
thorax -8.18826 2.89222 0.124098
lowerneck -0.653528 14.5537 6.8082
upperneck 4.74762 19.8076 -7.60418
head 3.27059 9.85501 -2.79167
lclavicle 4.57205e-14 -6.59965e-14 0
lhumerus 67.3906 -29.488 51.0815
lradius 56.048 -0 0
lwrist 1.29867 0 0
lhand -15.5454 35.5946 -0.0554678
lfingers 7.12502 -0 0
lthumb 10.638 65.2908 -0.0558516
rclavicle 4.57205e-14 -6.59965e-14 0
rhumerus -43.2744 28.1204 -78.0611
rradius 95.999 -0 0
rwrist -41.4677 0 0
rhand -11.5342 -42.8194 0.0547174
rfingers 7.12502 -0 0
rthumb 14.5021 -72.2387 0.0664099
1942
root 4.76643 13.8295 28.3593 -51.9243 78.5167 -56.6394
lfemur -62.9357 12.7004 -13.8859
ltibia 66.2626 -0 0
lfoot -6.14501 2.36101 -0.160751
ltoes -32.2002 0 0
rfemur -6.91046 -5.7998 20.6247
rtibia 61.7581 -0 0
rfoot -27.0644 -31.0173 0.106022
rtoes -26.9922 0 0
lowerback 13.4676 3.54857 5.05478
upperback -0.66966 5.97789 3.88576
thorax -8.20993 2.82089 0.151255
lowerneck -0.68824 14.4988 6.7703
upperneck 4.6543 19.7294 -7.65091
head 3.23987 9.81521 -2.80716
lclavicle 4.57205e-14 -6.59965e-14 0
lhumerus 67.9267 -30.0207 50.1127
lradius 58.1603 -0 0
lwrist 1.79364 0 0
lhand -15.6757 35.7287 -0.0576019
lfingers 7.12502 -0 0
lthumb 10.5123 65.4308 -0.0580005
rclavicle 4.57205e-14 -6.59965e-14 0
rhumerus -43.0419 28.7655 -78.0401
rradius 96.286 -0 0
rwrist -41.8734 0 0
rhand -11.2958 -42.7471 0.0568232
rfingers 7.12502 -0 0
rthumb 14.7316 -72.1476 0.0689656
1943
root 4.62688 13.8431 28.3923 -57.1681 79.2162 -61.9345
lfemur -63.0402 12.6397 -14.6746
ltibia 66.014 -0 0
lfoot -6.29742 2.681 -0.16586
ltoes -32.1446 0 0
rfemur -7.32322 -5.79247 20.9589
rtibia 61.8515 -0 0
rfoot -27.2677 -31.1755 0.10939
rtoes -26.9748 0 0
lowerback 13.535 3.42364 5.11221
upperback -0.652252 5.83182 3.91665
thorax -8.23163 2.74956 0.178437
lowerneck -0.722906 14.444 6.73245
upperneck 4.5611 19.6512 -7.69749
head 3.20917 9.7754 -2.82264
lclavicle 4.57205e-14 -6.59965e-14 0
lhumerus 68.4761 -30.5453 49.1328
lradius 60.2725 -0 0
lwrist 2.28862 0 0
lhand -15.8059 35.8628 -0.0594311
lfingers 7.12502 -0 0
lthumb 10.3867 65.5707 -0.0598424
rclavicle 4.57205e-14 -6.59965e-14 0
rhumerus -42.8077 29.4105 -78.0159
rradius 96.5731 -0 0
rwrist -42.2791 0 0
rhand -11.0575 -42.6748 0.0586282
rfingers 7.12502 -0 0
rthumb 14.961 -72.0564 0.0711563
1944
root 4.48734 13.8567 28.4252 -63.0827 79.813 -67.9001
lfemur -63.1438 12.5776 -15.4631
ltibia 65.7654 -0 0
lfoot -6.44987 3.00099 -0.170119
ltoes -32.089 0 0
rfemur -7.73592 -5.78273 21.2931
rtibia 61.9449 -0 0
rfoot -27.471 -31.3337 0.112196
rtoes -26.9575 0 0
lowerback 13.6023 3.29865 5.16949
upperback -0.634929 5.68573 3.94748
thorax -8.25336 2.67825 0.205644
lowerneck -0.757525 14.3891 6.69464
upperneck 4.46801 19.5728 -7.74391
head 3.17847 9.73558 -2.83809
lclavicle 4.57205e-14 -6.59965e-14 0
lhumerus 69.0389 -31.0617 48.1418
lradius 62.3848 -0 0
lwrist 2.78359 0 0
lhand -15.9361 35.9969 -0.0609556
lfingers 7.12502 -0 0
lthumb 10.261 65.7107 -0.0613774
rclavicle 4.57205e-14 -6.59965e-14 0
rhumerus -42.5717 30.0554 -77.9886
rradius 96.8602 -0 0
rwrist -42.6847 0 0
rhand -10.8192 -42.6025 0.0601324
rfingers 7.12502 -0 0
rthumb 15.1905 -71.9653 0.0729819
1945
root 4.3478 13.8703 28.4581 -69.6539 80.2882 -74.5224
lfemur -63.2465 12.5141 -16.2512
ltibia 65.5168 -0 0
lfoot -6.60233 3.321 -0.173525
ltoes -32.0334 0 0
rfemur -8.14856 -5.77061 21.6272
rtibia 62.0383 -0 0
rfoot -27.6743 -31.4919 0.114442
rtoes -26.9401 0 0
lowerback 13.6695 3.17359 5.22661
upperback -0.617689 5.53964 3.97827
thorax -8.27512 2.60694 0.232877
lowerneck -0.7921 14.3342 6.65687
upperneck 4.37503 19.4944 -7.79018
head 3.1478 9.69575 -2.85351
lclavicle 4.57205e-14 -6.59965e-14 0
lhumerus 69.6152 -31.5696 47.1395
lradius 64.497 -0 0
lwrist 3.27856 0 0
lhand -16.0664 36.131 -0.0621751
lfingers 7.12502 -0 0
lthumb 10.1354 65.8507 -0.0626054
rclavicle 4.57205e-14 -6.59965e-14 0
rhumerus -42.3338 30.7002 -77.9579
rradius 97.1472 -0 0
rwrist -43.0904 0 0
rhand -10.5809 -42.5302 0.0613359
rfingers 7.12502 -0 0
rthumb 15.42 -71.8741 0.0744425
1946
root 4.20826 13.8839 28.4911 -76.7967 80.6235 -81.7163
lfemur -63.3483 12.4492 -17.039
ltibia 65.2682 -0 0
lfoot -6.75481 3.64101 -0.176081
ltoes -31.9778 0 0
rfemur -8.56111 -5.75609 21.9612
rtibia 62.1317 -0 0
rfoot -27.8776 -31.6501 0.116126
rtoes -26.9227 0 0
lowerback 13.7365 3.04846 5.28358
upperback -0.600531 5.39353 4.009
thorax -8.29691 2.53565 0.260136
lowerneck -0.826628 14.2793 6.61915
upperneck 4.28216 19.4159 -7.83628
head 3.11714 9.65592 -2.86892
lclavicle 4.57205e-14 -6.59965e-14 0
lhumerus 70.205 -32.0688 46.1257
lradius 66.6093 -0 0
lwrist 3.77353 0 0
lhand -16.1966 36.2652 -0.0630898
lfingers 7.12502 -0 0
lthumb 10.0097 65.9907 -0.0635264
rclavicle 4.57205e-14 -6.59965e-14 0
rhumerus -42.0939 31.3449 -77.924
rradius 97.4343 -0 0
rwrist -43.4961 0 0
rhand -10.3425 -42.4578 0.0622384
rfingers 7.12502 -0 0
rthumb 15.6494 -71.7829 0.0755379
1947
root 4.06871 13.8975 28.524 -84.3424 80.8033 -89.313
lfemur -63.4491 12.383 -17.8265
ltibia 65.0196 -0 0
lfoot -6.9073 3.96103 -0.177784
ltoes -31.9222 0 0
rfemur -8.97355 -5.73918 22.2951
rtibia 62.2251 -0 0
rfoot -28.0809 -31.8083 0.117249
rtoes -26.9053 0 0
lowerback 13.8034 2.92327 5.3404
upperback -0.583457 5.24742 4.03967
thorax -8.31874 2.46436 0.28742
lowerneck -0.86111 14.2244 6.58147
upperneck 4.18941 19.3374 -7.88223
head 3.08649 9.61607 -2.8843
lclavicle 4.57205e-14 -6.59965e-14 0
lhumerus 70.8084 -32.559 45.1004
lradius 68.7215 -0 0
lwrist 4.26851 0 0
lhand -16.3268 36.3993 -0.0636996
lfingers 7.12502 -0 0
lthumb 9.88409 66.1307 -0.0641404
rclavicle 4.57205e-14 -6.59965e-14 0
rhumerus -41.8518 31.9894 -77.8866
rradius 97.7214 -0 0
rwrist -43.9018 0 0
rhand -10.1042 -42.3855 0.0628402
rfingers 7.12502 -0 0
rthumb 15.8789 -71.6918 0.0762682
1948
root 3.92917 13.9111 28.557 -92.0495 80.8186 -97.0712
lfemur -63.549 12.3154 -18.6137
ltibia 64.771 -0 0
lfoot -7.0598 4.28105 -0.178636
ltoes -31.8666 0 0
rfemur -9.38587 -5.71988 22.6288
rtibia 62.3185 -0 0
rfoot -28.2842 -31.9664 0.11781
rtoes -26.8879 0 0
lowerback 13.8701 2.79801 5.39706
upperback -0.566465 5.1013 4.0703
thorax -8.3406 2.39309 0.31473
lowerneck -0.895547 14.1694 6.54384
upperneck 4.09676 19.2588 -7.92803
head 3.05585 9.57622 -2.89965
lclavicle 4.57205e-14 -6.59965e-14 0
lhumerus 71.4255 -33.0399 44.0633
lradius 70.8338 -0 0
lwrist 4.76348 0 0
lhand -16.4571 36.5334 -0.0640045
lfingers 7.12502 -0 0
lthumb 9.75843 66.2707 -0.0644474
rclavicle 4.57205e-14 -6.59965e-14 0
rhumerus -41.6075 32.6338 -77.8457
rradius 98.0085 -0 0
rwrist -44.3075 0 0
rhand -9.86588 -42.3132 0.063141
rfingers 7.12502 -0 0
rthumb 16.1084 -71.6006 0.0766334
